<svg data-v-fde0c5aa="" xmlns="http://www.w3.org/2000/svg" viewBox="0 0 300 300" class="font"><!----><defs data-v-fde0c5aa=""><linearGradient data-v-fde0c5aa="" gradientTransform="rotate(25)" id="77e8ec2c-ca32-4a65-87c5-9ede10a97878" x1="0%" y1="0%" x2="100%" y2="0%"><stop data-v-fde0c5aa="" offset="0%" stop-color="#87544E" stop-opacity="1"></stop><stop data-v-fde0c5aa="" offset="100%" stop-color="#87544E" stop-opacity="1"></stop></linearGradient></defs><rect data-v-fde0c5aa="" fill="url(#77e8ec2c-ca32-4a65-87c5-9ede10a97878)" x="0" y="0" width="300px" height="300px" class="logo-background-square"></rect><defs data-v-fde0c5aa=""><!----></defs><g data-v-fde0c5aa="" id="7153cce8-bfa3-4841-b4ba-2261830777bc" fill="#ffffff" transform="matrix(3.2286469323541196,0,0,3.2286469323541196,35.931904896024584,118.40768872002853)"><path d="M1.57 12.61Q1.86 10.64 2.02 8.82Q2.18 7 2.18 5.52Q2.18 4.03 1.99 3.57L1.99 3.57Q3.15 3.96 3.44 4.80L3.44 4.80Q4.54 4.20 5.68 4.20Q6.83 4.20 7.69 4.83Q8.55 5.46 8.55 6.52Q8.54 7.59 7.85 8.37Q7.17 9.16 5.91 9.58L5.91 9.58Q6.89 9.79 7.69 10.52Q8.48 11.26 8.48 12.33L8.48 12.33Q8.48 13.99 7.33 14.88Q6.17 15.76 4.43 15.76Q2.69 15.76 1.26 14.69L1.26 14.69Q1.27 14.57 1.57 12.61ZM7.11 6.95Q7.11 6.17 6.61 5.71Q6.10 5.24 5.24 5.24Q4.37 5.24 3.61 5.60L3.61 5.60Q3.61 6.48 3.24 10.00Q2.87 13.52 2.87 14.52L2.87 14.52Q3.58 14.77 4.27 14.77L4.27 14.77Q5.47 14.77 6.26 14.08Q7.04 13.38 7.04 12.21L7.04 12.21Q7.04 11.33 6.24 10.66Q5.43 10.00 4.00 9.94L4.00 9.94L3.96 9.44Q5.45 9.25 6.28 8.49Q7.11 7.73 7.11 6.95ZM15.86 10.83Q15.86 9.46 15.52 8.87Q15.18 8.27 14.54 8.27Q13.90 8.27 13.26 8.90Q12.61 9.52 12.24 10.44Q11.87 11.35 11.87 12.34Q11.87 13.33 12.25 14.05Q12.63 14.77 13.40 14.77L13.40 14.77Q14.49 14.77 15.18 13.48Q15.86 12.19 15.86 10.83ZM11.80 10.29Q12.33 8.78 13.24 8.09Q14.14 7.39 15.07 7.39Q16.00 7.39 16.62 8.21Q17.23 9.03 17.23 10.43L17.23 10.43Q17.23 11.97 16.65 13.29L16.65 13.29Q15.99 14.74 14.74 15.32L14.74 15.32Q14.07 15.64 13.26 15.64L13.26 15.64Q12.12 15.64 11.27 14.69Q10.42 13.75 10.42 11.99Q10.42 10.23 11.17 8.95Q11.93 7.66 13.23 7.15L13.23 7.15Q13.51 7.15 13.51 7.43L13.51 7.43Q12.12 8.34 11.80 10.29L11.80 10.29ZM24.50 10.83Q24.50 9.46 24.16 8.87Q23.81 8.27 23.18 8.27Q22.54 8.27 21.90 8.90Q21.25 9.52 20.88 10.44Q20.51 11.35 20.51 12.34Q20.51 13.33 20.89 14.05Q21.27 14.77 22.04 14.77L22.04 14.77Q23.13 14.77 23.81 13.48Q24.50 12.19 24.50 10.83ZM20.44 10.29Q20.97 8.78 21.88 8.09Q22.78 7.39 23.71 7.39Q24.64 7.39 25.26 8.21Q25.87 9.03 25.87 10.43L25.87 10.43Q25.87 11.97 25.28 13.29L25.28 13.29Q24.63 14.74 23.38 15.32L23.38 15.32Q22.71 15.64 21.90 15.64L21.90 15.64Q20.76 15.64 19.91 14.69Q19.05 13.75 19.05 11.99Q19.05 10.23 19.81 8.95Q20.57 7.66 21.87 7.15L21.87 7.15Q22.15 7.15 22.15 7.43L22.15 7.43Q20.76 8.34 20.44 10.29L20.44 10.29ZM29.48 11.10Q29.92 9.10 30.74 8.21Q31.57 7.32 32.35 7.32Q33.14 7.32 33.58 7.80Q34.02 8.27 34.02 9.14Q34.02 10.00 33.53 10.68Q33.04 11.35 32.19 11.68L32.19 11.68L32.35 12.19Q32.82 13.64 33.70 15.05Q34.58 16.46 35.13 16.98L35.13 16.98Q34.75 17.11 34.40 17.11Q34.06 17.11 33.71 16.93Q33.36 16.76 33.10 16.54Q32.84 16.32 32.56 15.86Q32.27 15.39 32.10 15.06Q31.93 14.74 31.68 14.08L31.68 14.08Q31.42 13.40 30.94 12.01L30.94 12.01Q30.76 12.03 30.41 12.03L30.41 12.03Q30.32 11.96 30.32 11.58L30.32 11.58Q30.95 11.56 31.44 11.33Q31.93 11.09 32.19 10.72L32.19 10.72Q32.72 9.98 32.72 9.23L32.72 9.23Q32.72 8.85 32.54 8.60Q32.37 8.36 32.03 8.36L32.03 8.36Q31.44 8.36 30.84 9.14Q30.24 9.91 29.83 11.27Q29.41 12.63 29.41 14.11L29.41 14.11Q29.41 14.94 29.50 15.43L29.50 15.43Q29.16 15.46 29.12 15.46L29.12 15.46Q28.46 15.46 28.15 15.18Q27.83 14.90 27.83 14.30Q27.83 13.71 28.07 12.01L28.07 12.01Q28.83 6.80 28.83 4.10L28.83 4.10Q28.83 2.88 28.66 2.46L28.66 2.46Q29.47 2.76 29.80 3.33Q30.13 3.91 30.13 4.91L30.13 4.91Q30.13 5.61 29.85 7.85Q29.58 10.09 29.48 11.10L29.48 11.10ZM38.79 8.04Q38.32 8.04 37.95 8.33Q37.58 8.62 37.58 9.14Q37.58 9.65 37.92 10.09Q38.26 10.54 38.75 10.89Q39.24 11.24 39.75 11.61L39.75 11.61Q40.92 12.47 40.92 13.47Q40.92 14.46 40.12 15.09Q39.33 15.71 38.09 15.71Q36.85 15.71 36.17 15.22Q35.49 14.73 35.49 14.06Q35.49 13.40 35.83 13.02Q36.16 12.64 36.64 12.64L36.64 12.64Q36.89 12.64 37.11 12.75L37.11 12.75Q36.81 13.15 36.81 13.68Q36.81 14.21 37.13 14.57Q37.46 14.94 38.04 14.94Q38.63 14.94 39.03 14.64Q39.44 14.34 39.44 13.87Q39.44 13.41 39.20 13.06Q38.96 12.71 38.60 12.46Q38.25 12.21 37.83 11.90Q37.41 11.59 37.05 11.29Q36.69 10.99 36.46 10.54Q36.22 10.08 36.22 9.53L36.22 9.53Q36.22 8.54 36.97 7.90Q37.73 7.27 38.88 7.27Q40.03 7.27 40.56 7.74Q41.09 8.22 41.09 8.81Q41.09 9.41 40.80 9.79Q40.50 10.18 40.04 10.18L40.04 10.18Q39.82 10.18 39.52 10.05L39.52 10.05Q39.89 9.60 39.89 9.09Q39.89 8.57 39.57 8.30Q39.26 8.04 38.79 8.04ZM47.39 7.76L47.39 7.76Q47.39 8.34 47.17 8.57Q46.94 8.79 46.51 8.79L46.51 8.79L45.50 8.79Q45.44 9.16 45.21 10.53L45.21 10.53Q44.73 13.13 44.73 14.46Q44.73 15.79 44.93 16.23L44.93 16.23Q44.13 15.93 43.79 15.34Q43.46 14.74 43.46 13.89Q43.46 13.03 43.56 12.27Q43.67 11.51 43.86 10.49Q44.06 9.46 44.14 8.85L44.14 8.85Q43.34 8.96 42.57 9.30L42.57 9.30Q42.55 9.07 42.55 8.89L42.55 8.89Q42.55 8.22 42.99 7.99Q43.44 7.76 44.28 7.76L44.28 7.76Q44.38 6.72 44.38 6.21Q44.38 5.70 44.37 5.39Q44.37 5.08 44.37 4.93L44.37 4.93Q45.01 5.03 45.36 5.50Q45.71 5.96 45.71 6.78L45.71 6.78Q45.71 7.20 45.64 7.80L45.64 7.80Q46.86 7.80 47.36 7.39L47.36 7.39Q47.39 7.59 47.39 7.76ZM53.61 10.83Q53.61 9.46 53.26 8.87Q52.92 8.27 52.28 8.27Q51.65 8.27 51.00 8.90Q50.36 9.52 49.99 10.44Q49.62 11.35 49.62 12.34Q49.62 13.33 49.99 14.05Q50.37 14.77 51.14 14.77L51.14 14.77Q52.23 14.77 52.92 13.48Q53.61 12.19 53.61 10.83ZM49.55 10.29Q50.08 8.78 50.98 8.09Q51.88 7.39 52.81 7.39Q53.75 7.39 54.36 8.21Q54.98 9.03 54.98 10.43L54.98 10.43Q54.98 11.97 54.39 13.29L54.39 13.29Q53.73 14.74 52.49 15.32L52.49 15.32Q51.81 15.64 51.00 15.64L51.00 15.64Q49.87 15.64 49.01 14.69Q48.16 13.75 48.16 11.99Q48.16 10.23 48.92 8.95Q49.67 7.66 50.97 7.15L50.97 7.15Q51.25 7.15 51.25 7.43L51.25 7.43Q49.87 8.34 49.55 10.29L49.55 10.29ZM58.79 10.88Q59.29 9.06 60.00 8.20Q60.70 7.34 61.31 7.34Q61.92 7.34 62.23 7.79Q62.54 8.25 62.54 8.95Q62.54 9.65 62.17 10.16Q61.81 10.67 61.11 10.67L61.11 10.67Q60.89 10.67 60.76 10.64L60.76 10.64Q61.24 9.95 61.24 9.24L61.24 9.24Q61.24 8.74 60.83 8.74L60.83 8.74Q60.51 8.74 60.14 9.11Q59.78 9.49 59.44 10.16Q59.11 10.84 58.88 11.91Q58.66 12.99 58.66 14.24L58.66 14.24Q58.66 14.38 58.73 15.43L58.73 15.43Q58.37 15.46 58.31 15.46L58.31 15.46Q57.08 15.46 57.08 14.25L57.08 14.25Q57.08 13.97 57.37 12.10Q57.67 10.22 57.67 9.11Q57.67 7.99 57.43 7.06L57.43 7.06Q58.25 7.38 58.58 7.97Q58.91 8.57 58.91 9.36Q58.91 10.15 58.79 10.88L58.79 10.88ZM67.03 8.08L67.03 8.08Q66.19 8.08 65.61 9.04Q65.03 10.01 64.83 11.31L64.83 11.31L65.23 11.31Q65.97 11.31 66.51 11.10Q67.06 10.89 67.35 10.56L67.35 10.56Q67.91 9.91 67.91 9.10L67.91 9.10Q67.91 8.64 67.70 8.36Q67.48 8.08 67.03 8.08ZM69.01 13.75Q68.36 14.80 67.59 15.22Q66.82 15.64 65.81 15.64Q64.79 15.64 64.04 14.74Q63.28 13.85 63.28 12.22L63.28 12.22Q63.28 10.37 64.27 8.92L64.27 8.92Q64.76 8.22 65.55 7.78Q66.35 7.35 67.30 7.35L67.30 7.35Q69.40 7.35 69.40 9.38L69.40 9.38Q69.40 10.60 68.45 11.29Q67.51 11.98 66.26 11.98L66.26 11.98Q65.44 11.98 64.78 11.83L64.78 11.83Q64.76 11.97 64.76 12.26L64.76 12.26Q64.76 14.74 66.23 14.74L66.23 14.74Q67.62 14.74 68.49 13.37L68.49 13.37Q69.01 13.44 69.01 13.75L69.01 13.75Z"></path></g><!----><!----></svg>